<svg xmlns="http://www.w3.org/2000/svg" id="svg2" width="356.1" height="157.8" viewBox="0 0 356.1 157.8"><style id="style4">.st6{fill:#ff9a09}.st13{fill:#00ac6b}.st14{fill:#a39a8b}.st15{fill:#09a6d1}.st16{fill:#f4362c}.st19{stroke-width:.5;stroke-miterlimit:10;stroke-linecap:round;stroke-linejoin:round;fill:#302c43;stroke:#302c43}</style><g id="Layer_7_copy_2" transform="translate(-69.65 -74.9)"><circle id="circle104" cx="239.8" cy="115.9" r="4.4" fill="#00ac6b" class="st13"/><path id="path106" fill="#a39a8b" d="M198.1 100.5c-1.9-.1-6.7-.4-9-2.8-2.3-2.3-2.8-7.1-2.9-9.1-.1 2-.5 6.8-2.9 9.1-2.3 2.3-7.1 2.7-9 2.8 1.9.1 6.7.4 9 2.8 2.3 2.3 2.8 7.1 2.9 9.1.1-2 .5-6.8 2.9-9.1s7.1-2.7 9-2.8c0 .1 0 .1 0 0" class="st14"/><path id="path108" fill="#09a6d1" d="M299.4 214.6c-3-.1-10.2-.7-13.7-4.2-3.6-3.6-4.2-10.9-4.4-13.9-.1 3-.8 10.3-4.4 13.9-3.6 3.6-10.8 4.1-13.7 4.2 2.9.1 10.2.7 13.7 4.2 3.6 3.6 4.2 10.9 4.4 13.9.1-3 .8-10.3 4.4-13.9 3.5-3.5 10.7-4.1 13.7-4.2-.1 0 0 0 0 0" class="st15"/><circle id="circle110" cx="330.7" cy="195.5" r="3.9" fill="#f4362c" class="st16"/><circle id="circle112" cx="197.4" cy="200" r="3.2" fill="#ff9a09" class="st6"/><path id="path114" fill="#ff9a09" d="M328.6 96c-3.4-.1-11.8-.8-16-4.9-4.2-4.2-4.9-12.7-5.1-16.2-.1 3.5-.9 12-5.1 16.2-4.2 4.2-12.6 4.8-16 4.9 3.4.1 11.8.8 16 4.9 4.2 4.2 4.9 12.7 5.1 16.2.1-3.5.9-12 5.1-16.2 4.1-4 12.5-4.7 16-4.9-.1.1 0 .1 0 0 0 .1 0 0 0 0" class="st6"/></g><g id="Layer_4_copy" transform="translate(-69.65 -74.9)"><path id="path128" stroke="#302c43" stroke-linecap="round" stroke-linejoin="round" stroke-miterlimit="10" stroke-width=".5" d="M91.6 163.9l-2.5-5h-12l-2.8 5h-4.4l11.5-19.3h4.4l10 19.3h-4.2zM79 155.7h8.5l-4-8-4.5 8zm48.8-6c-1.4-1.1-5.3-2.2-8.6-2.2-3 0-5.6.9-5.6 3 0 3.5 16-.3 16 7.1 0 3.6-3.6 6.9-10.1 6.9-6.6 0-9.7-2.2-10.9-3.5l2.4-2.7c2.7 2.2 5.7 2.9 8.4 2.9 2.8 0 6.3-.7 6.3-3.1 0-4.6-16.1.3-16.1-7.6 0-3.9 4.4-6.3 10.1-6.3 4.8 0 8.4 1.5 10.2 2.7-.2 0-1.4 1.8-2.1 2.8zm34.4-1.7h-7.9v15.9h-3.6V148H143v-3.3h19.3v3.3zm14.4 15.9v-19.2H189c4.6 0 6.7 2.5 6.7 5.8 0 2.9-1.6 5.2-5 5.7l5.9 7.7H192l-5.8-7.5h-6.1v7.5h-3.5zm3.6-16.1v5.5h8.7c2.2 0 3.5-1 3.5-2.8 0-1.5-1.3-2.7-3.5-2.7h-8.7zm54.3 6.5c0 5.7-4.8 10-12.4 10-7.6 0-12.5-4.2-12.5-10s4.9-10.2 12.5-10.2 12.4 4.5 12.4 10.2zm-3.9 0c0-4.1-3.3-6.8-8.6-6.8s-8.6 2.7-8.6 6.8c0 4 3.3 6.6 8.6 6.6 5.4 0 8.6-2.5 8.6-6.6zm40.2 9.6h-4.6l-12.5-14.8v14.8H250v-19.2h4.7l12.5 14.7v-14.7h3.6v19.2zm40.4-9.6c0 5.7-4.8 10-12.4 10-7.6 0-12.5-4.2-12.5-10s4.9-10.2 12.5-10.2 12.4 4.5 12.4 10.2zm-3.8 0c0-4.1-3.3-6.8-8.6-6.8s-8.6 2.7-8.6 6.8c0 4 3.3 6.6 8.6 6.6s8.6-2.5 8.6-6.6zm33.8 5.8l9.4-15.3h4.9V164H352v-15.2l-9.4 15.2h-3.3l-9.1-15.2V164h-3.6v-19.2h5.5l9.1 15.3zm49.2.6v3.3h-18.5v-19.3h17.8v3.3h-14.2v4.6h13.2v3.2h-13.2v5h14.9zm15 3.2v-19.2h12.5c4.6 0 6.7 2.5 6.7 5.8 0 2.9-1.6 5.2-5 5.7l5.9 7.7h-4.6l-5.8-7.5H409v7.5h-3.6zm3.6-16.1v5.5h8.7c2.2 0 3.5-1 3.5-2.8 0-1.5-1.3-2.7-3.5-2.7H409z" class="st19"/></g></svg>